# MagicaVoxel @ Ephtracy

# group
o 

# material
mtllib Box.mtl
usemtl palette

# normals
vn -1 0 0
vn 1 0 0
vn 0 0 1
vn 0 0 -1
vn 0 -1 0
vn 0 1 0

# texcoords
vt 0.537109 0.5
vt 0.771484 0.5

# verts
v -0.5 0 0.5
v -0.5 0 -0.5
v -0.5 0.6 0.5
v -0.5 0.6 0.4
v -0.5 0.6 0.3
v -0.5 0.6 0.2
v -0.5 0.6 -0.1
v -0.5 0.6 -0.3
v -0.5 0.6 -0.4
v -0.5 0.6 -0.5
v -0.5 0.7 0.4
v -0.5 0.7 0.3
v -0.5 0.7 0.2
v -0.5 0.7 -0.1
v -0.5 0.7 -0.3
v -0.5 0.7 -0.4
v -0.5 1 0.5
v -0.5 1 -0.5
v 0.5 0 0.5
v 0.5 0 -0.5
v 0.5 0.6 0.5
v 0.5 0.6 0.4
v 0.5 0.6 0.3
v 0.5 0.6 0
v 0.5 0.6 -0.3
v 0.5 0.6 -0.5
v 0.5 0.7 0.4
v 0.5 0.7 0.3
v 0.5 0.7 0
v 0.5 0.7 -0.3
v 0.5 1 0.5
v 0.5 1 -0.5
v -0.5 0 0.5
v -0.5 0.6 0.5
v -0.5 1 0.5
v -0.3 0.6 0.5
v -0.3 0.7 0.5
v -0.2 0.6 0.5
v -0.2 0.7 0.5
v -0.1 0.6 0.5
v -0.1 0.7 0.5
v 0 0.6 0.5
v 0 0.7 0.5
v 0.2 0.6 0.5
v 0.2 0.7 0.5
v 0.4 0.6 0.5
v 0.4 0.7 0.5
v 0.5 0 0.5
v 0.5 0.6 0.5
v 0.5 1 0.5
v -0.5 0 -0.5
v -0.5 0.6 -0.5
v -0.5 1 -0.5
v -0.4 0.6 -0.5
v -0.4 0.7 -0.5
v 0 0.6 -0.5
v 0 0.7 -0.5
v 0.5 0 -0.5
v 0.5 0.6 -0.5
v 0.5 1 -0.5
v -0.5 0 0.5
v 0.5 0 0.5
v -0.5 0 -0.5
v 0.5 0 -0.5
v -0.5 1 0.5
v 0.5 1 0.5
v -0.5 1 -0.5
v 0.5 1 -0.5

# faces
f 3/1/1 2/1/1 1/1/1
f 4/1/1 2/1/1 3/1/1
f 5/1/1 2/1/1 4/1/1
f 6/1/1 2/1/1 5/1/1
f 7/1/1 2/1/1 6/1/1
f 8/1/1 2/1/1 7/1/1
f 9/1/1 2/1/1 8/1/1
f 10/1/1 2/1/1 9/1/1
f 11/2/1 4/2/1 3/2/1
f 11/1/1 5/1/1 4/1/1
f 12/2/1 6/2/1 5/2/1
f 12/1/1 5/1/1 11/1/1
f 13/1/1 7/1/1 6/1/1
f 13/2/1 6/2/1 12/2/1
f 14/2/1 8/2/1 7/2/1
f 14/1/1 7/1/1 13/1/1
f 15/1/1 9/1/1 8/1/1
f 15/2/1 8/2/1 14/2/1
f 16/2/1 10/2/1 9/2/1
f 16/1/1 9/1/1 15/1/1
f 17/2/1 15/2/1 14/2/1
f 17/2/1 11/2/1 3/2/1
f 17/2/1 16/2/1 15/2/1
f 17/2/1 14/2/1 13/2/1
f 17/2/1 13/2/1 12/2/1
f 17/2/1 12/2/1 11/2/1
f 18/2/1 10/2/1 16/2/1
f 18/2/1 16/2/1 17/2/1
f 19/1/2 20/1/2 21/1/2
f 21/1/2 20/1/2 22/1/2
f 22/1/2 20/1/2 23/1/2
f 23/1/2 20/1/2 24/1/2
f 24/1/2 20/1/2 25/1/2
f 25/1/2 20/1/2 26/1/2
f 21/2/2 22/2/2 27/2/2
f 22/1/2 23/1/2 27/1/2
f 23/2/2 24/2/2 28/2/2
f 27/1/2 23/1/2 28/1/2
f 24/1/2 25/1/2 29/1/2
f 28/2/2 24/2/2 29/2/2
f 25/2/2 26/2/2 30/2/2
f 29/1/2 25/1/2 30/1/2
f 28/2/2 29/2/2 31/2/2
f 21/2/2 27/2/2 31/2/2
f 29/2/2 30/2/2 31/2/2
f 27/2/2 28/2/2 31/2/2
f 30/2/2 26/2/2 32/2/2
f 31/2/2 30/2/2 32/2/2
f 36/1/3 34/1/3 33/1/3
f 36/2/3 35/2/3 34/2/3
f 37/2/3 35/2/3 36/2/3
f 38/1/3 36/1/3 33/1/3
f 38/1/3 37/1/3 36/1/3
f 39/2/3 35/2/3 37/2/3
f 39/1/3 37/1/3 38/1/3
f 40/1/3 38/1/3 33/1/3
f 40/2/3 39/2/3 38/2/3
f 41/2/3 35/2/3 39/2/3
f 41/2/3 39/2/3 40/2/3
f 42/1/3 40/1/3 33/1/3
f 42/1/3 41/1/3 40/1/3
f 43/2/3 35/2/3 41/2/3
f 43/1/3 41/1/3 42/1/3
f 44/1/3 42/1/3 33/1/3
f 44/2/3 43/2/3 42/2/3
f 45/2/3 35/2/3 43/2/3
f 45/2/3 43/2/3 44/2/3
f 46/1/3 44/1/3 33/1/3
f 46/1/3 45/1/3 44/1/3
f 47/2/3 35/2/3 45/2/3
f 47/1/3 45/1/3 46/1/3
f 48/1/3 46/1/3 33/1/3
f 49/2/3 47/2/3 46/2/3
f 49/1/3 46/1/3 48/1/3
f 50/2/3 35/2/3 47/2/3
f 50/2/3 47/2/3 49/2/3
f 51/1/4 52/1/4 54/1/4
f 52/2/4 53/2/4 54/2/4
f 54/2/4 53/2/4 55/2/4
f 51/1/4 54/1/4 56/1/4
f 54/1/4 55/1/4 56/1/4
f 55/2/4 53/2/4 57/2/4
f 56/1/4 55/1/4 57/1/4
f 51/1/4 56/1/4 58/1/4
f 56/2/4 57/2/4 59/2/4
f 58/1/4 56/1/4 59/1/4
f 57/2/4 53/2/4 60/2/4
f 59/2/4 57/2/4 60/2/4
f 63/1/5 62/1/5 61/1/5
f 64/1/5 62/1/5 63/1/5
f 65/2/6 66/2/6 67/2/6
f 67/2/6 66/2/6 68/2/6
