# MagicaVoxel @ Ephtracy

# group
o 

# material
mtllib chr_knight.mtl
usemtl palette

# normals
vn -1 0 0
vn 1 0 0
vn 0 0 1
vn 0 0 -1
vn 0 -1 0
vn 0 1 0

# texcoords
vt 0.0214844 0.5
vt 0.0332031 0.5
vt 0.0410156 0.5
vt 0.0644531 0.5
vt 0.0683594 0.5
vt 0.205078 0.5
vt 0.369141 0.5
vt 0.826172 0.5
vt 0.994141 0.5

# verts
v -0.6 0.3 -2.98023e-08
v -0.6 0.3 -0.1
v -0.6 0.4 -2.98023e-08
v -0.6 0.4 -0.1
v -0.5 0.4 -2.98023e-08
v -0.5 0.4 -0.1
v -0.5 0.5 -2.98023e-08
v -0.5 0.5 -0.1
v -0.5 1.3 -2.98023e-08
v -0.5 1.3 -0.1
v -0.5 1.5 -2.98023e-08
v -0.5 1.5 -0.1
v -0.4 0.5 -2.98023e-08
v -0.4 0.5 -0.1
v -0.4 0.6 -2.98023e-08
v -0.4 0.6 -0.1
v -0.4 0.8 0.1
v -0.4 0.8 -0.2
v -0.4 0.9 0.2
v -0.4 0.9 0.1
v -0.4 0.9 -0.2
v -0.4 0.9 -0.3
v -0.4 1.2 0.2
v -0.4 1.2 0.1
v -0.4 1.2 -0.2
v -0.4 1.2 -0.3
v -0.4 1.3 0.1
v -0.4 1.3 -2.98023e-08
v -0.4 1.3 -0.1
v -0.4 1.3 -0.2
v -0.3 0.3 0.2
v -0.3 0.3 -0.3
v -0.3 0.4 0.2
v -0.3 0.4 -0.3
v -0.3 0.5 0.1
v -0.3 0.5 -2.98023e-08
v -0.3 0.6 -2.98023e-08
v -0.3 0.6 -0.1
v -0.3 0.6 -0.2
v -0.3 0.7 0.2
v -0.3 0.7 0.1
v -0.3 0.7 -2.98023e-08
v -0.3 0.7 -0.1
v -0.3 0.7 -0.2
v -0.3 0.7 -0.3
v -0.3 0.8 0.1
v -0.3 0.8 -2.98023e-08
v -0.3 0.8 -0.2
v -0.3 0.8 -0.3
v -0.3 0.9 0.2
v -0.3 0.9 0.1
v -0.3 0.9 -0.2
v -0.3 0.9 -0.3
v -0.3 0.9 -0.4
v -0.3 1 0.3
v -0.3 1 0.2
v -0.3 1.2 0.3
v -0.3 1.2 0.2
v -0.3 1.2 0.1
v -0.3 1.2 -0.2
v -0.3 1.2 -0.3
v -0.3 1.2 -0.4
v -0.3 1.3 0.2
v -0.3 1.3 0.1
v -0.3 1.3 -0.2
v -0.3 1.3 -0.3
v -0.2 0 -2.98023e-08
v -0.2 0 -0.1
v -0.2 0.2 -2.98023e-08
v -0.2 0.2 -0.1
v -0.2 0.3 -2.98023e-08
v -0.2 0.3 -0.1
v -0.2 0.4 0.1
v -0.2 0.4 -0.2
v -0.2 0.5 0.1
v -0.2 0.5 -2.98023e-08
v -0.2 0.5 -0.1
v -0.2 0.6 0.2
v -0.2 0.6 0.1
v -0.2 0.6 -0.1
v -0.2 0.6 -0.2
v -0.2 0.6 -0.3
v -0.2 0.7 0.2
v -0.2 0.7 0.1
v -0.2 0.7 -2.98023e-08
v -0.2 0.7 -0.2
v -0.2 0.7 -0.3
v -0.2 0.7 -0.4
v -0.2 0.8 0.1
v -0.2 0.8 -2.98023e-08
v -0.2 0.8 -0.3
v -0.2 0.8 -0.4
v -0.2 0.8 -0.5
v -0.2 0.9 -0.3
v -0.2 0.9 -0.4
v -0.2 1.1 -0.4
v -0.2 1.1 -0.5
v -0.2 1.3 0.1
v -0.2 1.3 -0.2
v -0.2 1.4 0.1
v -0.2 1.4 -0.2
v -0.1 0.6 -0.3
v -0.1 0.6 -0.4
v -0.1 0.7 -0.3
v -0.1 0.7 -0.4
v -0.1 0.9 0.2
v -0.1 0.9 0.1
v -0.1 1 0.2
v -0.1 1 0.1
v 0.1 0 -2.98023e-08
v 0.1 0 -0.1
v 0.1 0.2 -2.98023e-08
v 0.1 0.2 -0.1
v 0.1 0.3 -2.98023e-08
v 0.1 0.3 -0.1
v 0.1 0.6 0.2
v 0.1 0.6 0.1
v 0.1 0.7 0.2
v 0.1 0.7 0.1
v 0.1 0.7 -0.3
v 0.1 0.7 -0.4
v 0.1 0.8 -0.3
v 0.1 0.8 -0.4
v 0.1 0.8 -0.5
v 0.1 0.9 -0.3
v 0.1 0.9 -0.5
v 0.2 0.7 0.2
v 0.2 0.7 0.1
v 0.2 0.8 0.1
v 0.2 0.9 0.1
v 0.2 1 0.2
v 0.2 1 0.1
v 0.3 1.3 -2.98023e-08
v 0.3 1.3 -0.1
v 0.3 1.4 -2.98023e-08
v 0.3 1.4 -0.1
v 0.4 0.4 -2.98023e-08
v 0.4 0.4 -0.1
v 0.4 0.5 -2.98023e-08
v 0.4 0.5 -0.1
v 0.4 1.4 -2.98023e-08
v 0.4 1.4 -0.1
v 0.4 1.5 -2.98023e-08
v 0.4 1.5 -0.1
v 0.5 0.3 -2.98023e-08
v 0.5 0.3 -0.1
v 0.5 0.4 -2.98023e-08
v 0.5 0.4 -0.1
v -0.5 0.3 -2.98023e-08
v -0.5 0.3 -0.1
v -0.5 0.4 -2.98023e-08
v -0.5 0.4 -0.1
v -0.4 0.4 -2.98023e-08
v -0.4 0.4 -0.1
v -0.4 0.5 -2.98023e-08
v -0.4 0.5 -0.1
v -0.4 1.4 -2.98023e-08
v -0.4 1.4 -0.1
v -0.4 1.5 -2.98023e-08
v -0.4 1.5 -0.1
v -0.3 1.3 -2.98023e-08
v -0.3 1.3 -0.1
v -0.3 1.4 -2.98023e-08
v -0.3 1.4 -0.1
v -0.2 0.7 0.2
v -0.2 0.7 0.1
v -0.2 0.8 0.1
v -0.2 0.9 0.1
v -0.2 1 0.2
v -0.2 1 0.1
v -0.1 0 -2.98023e-08
v -0.1 0 -0.1
v -0.1 0.2 -2.98023e-08
v -0.1 0.2 -0.1
v -0.1 0.3 -2.98023e-08
v -0.1 0.3 -0.1
v -0.1 0.6 0.2
v -0.1 0.6 0.1
v -0.1 0.7 0.2
v -0.1 0.7 0.1
v -0.1 0.7 -0.3
v -0.1 0.7 -0.4
v -0.1 0.8 -0.3
v -0.1 0.8 -0.4
v -0.1 0.8 -0.5
v -0.1 0.9 -0.3
v -0.1 0.9 -0.5
v 0 0.9 0.2
v 0 0.9 0.1
v 0 1 0.2
v 0 1 0.1
v 0.1 0.6 -0.3
v 0.1 0.6 -0.4
v 0.1 0.7 -0.3
v 0.1 0.7 -0.4
v 0.2 0 -2.98023e-08
v 0.2 0 -0.1
v 0.2 0.2 -2.98023e-08
v 0.2 0.2 -0.1
v 0.2 0.3 -2.98023e-08
v 0.2 0.3 -0.1
v 0.2 0.4 0.1
v 0.2 0.4 -0.2
v 0.2 0.5 0.1
v 0.2 0.5 -2.98023e-08
v 0.2 0.5 -0.1
v 0.2 0.6 0.2
v 0.2 0.6 0.1
v 0.2 0.6 -0.1
v 0.2 0.6 -0.2
v 0.2 0.7 0.2
v 0.2 0.7 0.1
v 0.2 0.7 -2.98023e-08
v 0.2 0.7 -0.3
v 0.2 0.7 -0.4
v 0.2 0.8 0.1
v 0.2 0.8 -2.98023e-08
v 0.2 0.8 -0.3
v 0.2 0.8 -0.4
v 0.2 0.8 -0.5
v 0.2 0.9 -0.3
v 0.2 0.9 -0.4
v 0.2 1.1 -0.4
v 0.2 1.1 -0.5
v 0.2 1.3 0.1
v 0.2 1.3 -0.2
v 0.2 1.4 0.1
v 0.2 1.4 -0.2
v 0.3 0.3 0.2
v 0.3 0.3 -0.3
v 0.3 0.4 0.2
v 0.3 0.4 -0.3
v 0.3 0.5 0.1
v 0.3 0.5 -2.98023e-08
v 0.3 0.6 -2.98023e-08
v 0.3 0.6 -0.1
v 0.3 0.6 -0.3
v 0.3 0.7 0.2
v 0.3 0.7 0.1
v 0.3 0.7 -2.98023e-08
v 0.3 0.7 -0.1
v 0.3 0.7 -0.2
v 0.3 0.8 0.1
v 0.3 0.8 -2.98023e-08
v 0.3 0.8 -0.1
v 0.3 0.8 -0.2
v 0.3 0.8 -0.3
v 0.3 0.9 0.2
v 0.3 0.9 0.1
v 0.3 0.9 -0.2
v 0.3 0.9 -0.3
v 0.3 0.9 -0.4
v 0.3 1 0.3
v 0.3 1 0.2
v 0.3 1.2 0.3
v 0.3 1.2 0.2
v 0.3 1.2 0.1
v 0.3 1.2 -0.2
v 0.3 1.2 -0.3
v 0.3 1.2 -0.4
v 0.3 1.3 0.2
v 0.3 1.3 0.1
v 0.3 1.3 -0.2
v 0.3 1.3 -0.3
v 0.4 0.5 -2.98023e-08
v 0.4 0.5 -0.1
v 0.4 0.6 -2.98023e-08
v 0.4 0.6 -0.1
v 0.4 0.7 -0.1
v 0.4 0.7 -0.2
v 0.4 0.8 0.1
v 0.4 0.8 -0.1
v 0.4 0.8 -0.2
v 0.4 0.9 0.2
v 0.4 0.9 0.1
v 0.4 0.9 -0.2
v 0.4 0.9 -0.3
v 0.4 1.2 0.2
v 0.4 1.2 0.1
v 0.4 1.2 -0.2
v 0.4 1.2 -0.3
v 0.4 1.3 0.1
v 0.4 1.3 -2.98023e-08
v 0.4 1.3 -0.1
v 0.4 1.3 -0.2
v 0.5 0.4 -2.98023e-08
v 0.5 0.4 -0.1
v 0.5 0.5 -2.98023e-08
v 0.5 0.5 -0.1
v 0.5 1.3 -2.98023e-08
v 0.5 1.3 -0.1
v 0.5 1.5 -2.98023e-08
v 0.5 1.5 -0.1
v 0.6 0.3 -2.98023e-08
v 0.6 0.3 -0.1
v 0.6 0.4 -2.98023e-08
v 0.6 0.4 -0.1
v -0.3 1 0.3
v -0.3 1.2 0.3
v 0.3 1 0.3
v 0.3 1.2 0.3
v -0.4 0.9 0.2
v -0.4 1.2 0.2
v -0.3 0.3 0.2
v -0.3 0.4 0.2
v -0.3 0.7 0.2
v -0.3 0.9 0.2
v -0.3 1 0.2
v -0.3 1.2 0.2
v -0.3 1.3 0.2
v -0.2 0.6 0.2
v -0.2 0.7 0.2
v -0.2 1 0.2
v -0.1 0.6 0.2
v -0.1 0.7 0.2
v -0.1 0.9 0.2
v -0.1 1 0.2
v 0 0.9 0.2
v 0 1 0.2
v 0.1 0.6 0.2
v 0.1 0.7 0.2
v 0.2 0.6 0.2
v 0.2 0.7 0.2
v 0.2 1 0.2
v 0.3 0.3 0.2
v 0.3 0.4 0.2
v 0.3 0.7 0.2
v 0.3 0.9 0.2
v 0.3 1 0.2
v 0.3 1.2 0.2
v 0.3 1.3 0.2
v 0.4 0.9 0.2
v 0.4 1.2 0.2
v -0.4 0.8 0.1
v -0.4 0.9 0.1
v -0.4 1.2 0.1
v -0.4 1.3 0.1
v -0.3 0.5 0.1
v -0.3 0.7 0.1
v -0.3 0.8 0.1
v -0.3 0.9 0.1
v -0.3 1.2 0.1
v -0.3 1.3 0.1
v -0.2 0.4 0.1
v -0.2 0.5 0.1
v -0.2 0.6 0.1
v -0.2 0.7 0.1
v -0.2 0.8 0.1
v -0.2 0.9 0.1
v -0.2 1 0.1
v -0.2 1.3 0.1
v -0.2 1.4 0.1
v -0.1 0.6 0.1
v -0.1 0.7 0.1
v -0.1 0.8 0.1
v -0.1 0.9 0.1
v -0.1 1 0.1
v 0 0.9 0.1
v 0 1 0.1
v 0.1 0.6 0.1
v 0.1 0.7 0.1
v 0.1 0.8 0.1
v 0.1 0.9 0.1
v 0.2 0.4 0.1
v 0.2 0.5 0.1
v 0.2 0.6 0.1
v 0.2 0.7 0.1
v 0.2 0.8 0.1
v 0.2 0.9 0.1
v 0.2 1 0.1
v 0.2 1.3 0.1
v 0.2 1.4 0.1
v 0.3 0.5 0.1
v 0.3 0.7 0.1
v 0.3 0.8 0.1
v 0.3 0.9 0.1
v 0.3 1.2 0.1
v 0.3 1.3 0.1
v 0.4 0.8 0.1
v 0.4 0.9 0.1
v 0.4 1.2 0.1
v 0.4 1.3 0.1
v -0.6 0.3 -2.98023e-08
v -0.6 0.4 -2.98023e-08
v -0.5 0.3 -2.98023e-08
v -0.5 0.4 -2.98023e-08
v -0.5 0.5 -2.98023e-08
v -0.5 1.3 -2.98023e-08
v -0.5 1.5 -2.98023e-08
v -0.4 0.4 -2.98023e-08
v -0.4 0.5 -2.98023e-08
v -0.4 0.6 -2.98023e-08
v -0.4 1.3 -2.98023e-08
v -0.4 1.4 -2.98023e-08
v -0.4 1.5 -2.98023e-08
v -0.3 0.5 -2.98023e-08
v -0.3 0.6 -2.98023e-08
v -0.3 0.7 -2.98023e-08
v -0.3 0.8 -2.98023e-08
v -0.3 1.3 -2.98023e-08
v -0.3 1.4 -2.98023e-08
v -0.2 0 -2.98023e-08
v -0.2 0.2 -2.98023e-08
v -0.2 0.3 -2.98023e-08
v -0.2 0.7 -2.98023e-08
v -0.2 0.8 -2.98023e-08
v -0.1 0 -2.98023e-08
v -0.1 0.2 -2.98023e-08
v -0.1 0.3 -2.98023e-08
v 0.1 0 -2.98023e-08
v 0.1 0.2 -2.98023e-08
v 0.1 0.3 -2.98023e-08
v 0.2 0 -2.98023e-08
v 0.2 0.2 -2.98023e-08
v 0.2 0.3 -2.98023e-08
v 0.2 0.7 -2.98023e-08
v 0.2 0.8 -2.98023e-08
v 0.3 0.5 -2.98023e-08
v 0.3 0.6 -2.98023e-08
v 0.3 0.7 -2.98023e-08
v 0.3 0.8 -2.98023e-08
v 0.3 1.3 -2.98023e-08
v 0.3 1.4 -2.98023e-08
v 0.4 0.4 -2.98023e-08
v 0.4 0.5 -2.98023e-08
v 0.4 0.6 -2.98023e-08
v 0.4 1.3 -2.98023e-08
v 0.4 1.4 -2.98023e-08
v 0.4 1.5 -2.98023e-08
v 0.5 0.3 -2.98023e-08
v 0.5 0.4 -2.98023e-08
v 0.5 0.5 -2.98023e-08
v 0.5 1.3 -2.98023e-08
v 0.5 1.5 -2.98023e-08
v 0.6 0.3 -2.98023e-08
v 0.6 0.4 -2.98023e-08
v 0.3 0.7 -0.1
v 0.3 0.8 -0.1
v 0.4 0.7 -0.1
v 0.4 0.8 -0.1
v -0.3 0.7 0.1
v -0.3 0.8 0.1
v -0.2 0.7 0.1
v -0.2 0.8 0.1
v 0.2 0.7 0.1
v 0.2 0.8 0.1
v 0.3 0.7 0.1
v 0.3 0.8 0.1
v -0.6 0.3 -0.1
v -0.6 0.4 -0.1
v -0.5 0.3 -0.1
v -0.5 0.4 -0.1
v -0.5 0.5 -0.1
v -0.5 1.3 -0.1
v -0.5 1.5 -0.1
v -0.4 0.4 -0.1
v -0.4 0.5 -0.1
v -0.4 0.6 -0.1
v -0.4 1.3 -0.1
v -0.4 1.4 -0.1
v -0.4 1.5 -0.1
v -0.3 0.6 -0.1
v -0.3 1.3 -0.1
v -0.3 1.4 -0.1
v -0.2 0 -0.1
v -0.2 0.2 -0.1
v -0.2 0.3 -0.1
v -0.2 0.5 -0.1
v -0.2 0.6 -0.1
v -0.1 0 -0.1
v -0.1 0.2 -0.1
v -0.1 0.3 -0.1
v 0.1 0 -0.1
v 0.1 0.2 -0.1
v 0.1 0.3 -0.1
v 0.2 0 -0.1
v 0.2 0.2 -0.1
v 0.2 0.3 -0.1
v 0.2 0.5 -0.1
v 0.2 0.6 -0.1
v 0.3 0.6 -0.1
v 0.3 1.3 -0.1
v 0.3 1.4 -0.1
v 0.4 0.4 -0.1
v 0.4 0.5 -0.1
v 0.4 0.6 -0.1
v 0.4 1.3 -0.1
v 0.4 1.4 -0.1
v 0.4 1.5 -0.1
v 0.5 0.3 -0.1
v 0.5 0.4 -0.1
v 0.5 0.5 -0.1
v 0.5 1.3 -0.1
v 0.5 1.5 -0.1
v 0.6 0.3 -0.1
v 0.6 0.4 -0.1
v -0.4 0.8 -0.2
v -0.4 0.9 -0.2
v -0.4 1.2 -0.2
v -0.4 1.3 -0.2
v -0.3 0.6 -0.2
v -0.3 0.7 -0.2
v -0.3 0.8 -0.2
v -0.3 0.9 -0.2
v -0.3 1.2 -0.2
v -0.3 1.3 -0.2
v -0.2 0.4 -0.2
v -0.2 0.6 -0.2
v -0.2 0.7 -0.2
v -0.2 1.3 -0.2
v -0.2 1.4 -0.2
v 0.1 0.6 -0.2
v 0.2 0.4 -0.2
v 0.2 0.6 -0.2
v 0.2 1.3 -0.2
v 0.2 1.4 -0.2
v 0.3 0.7 -0.2
v 0.3 0.8 -0.2
v 0.3 0.9 -0.2
v 0.3 1.2 -0.2
v 0.3 1.3 -0.2
v 0.4 0.7 -0.2
v 0.4 0.8 -0.2
v 0.4 0.9 -0.2
v 0.4 1.2 -0.2
v 0.4 1.3 -0.2
v -0.4 0.9 -0.3
v -0.4 1.2 -0.3
v -0.3 0.3 -0.3
v -0.3 0.4 -0.3
v -0.3 0.7 -0.3
v -0.3 0.8 -0.3
v -0.3 0.9 -0.3
v -0.3 1.2 -0.3
v -0.3 1.3 -0.3
v -0.2 0.6 -0.3
v -0.2 0.7 -0.3
v -0.2 0.8 -0.3
v -0.2 0.9 -0.3
v -0.1 0.6 -0.3
v -0.1 0.7 -0.3
v -0.1 0.8 -0.3
v -0.1 0.9 -0.3
v 0.1 0.6 -0.3
v 0.1 0.7 -0.3
v 0.1 0.8 -0.3
v 0.1 0.9 -0.3
v 0.2 0.6 -0.3
v 0.2 0.7 -0.3
v 0.2 0.8 -0.3
v 0.2 0.9 -0.3
v 0.3 0.3 -0.3
v 0.3 0.4 -0.3
v 0.3 0.6 -0.3
v 0.3 0.8 -0.3
v 0.3 0.9 -0.3
v 0.3 1.2 -0.3
v 0.3 1.3 -0.3
v 0.4 0.9 -0.3
v 0.4 1.2 -0.3
v -0.3 0.9 -0.4
v -0.3 1.2 -0.4
v -0.2 0.7 -0.4
v -0.2 0.8 -0.4
v -0.2 0.9 -0.4
v -0.2 1.1 -0.4
v -0.1 0.6 -0.4
v -0.1 0.7 -0.4
v -0.1 0.8 -0.4
v 0.1 0.6 -0.4
v 0.1 0.7 -0.4
v 0.1 0.8 -0.4
v 0.2 0.7 -0.4
v 0.2 0.8 -0.4
v 0.2 0.9 -0.4
v 0.2 1.1 -0.4
v 0.3 0.9 -0.4
v 0.3 1.2 -0.4
v -0.2 0.8 -0.5
v -0.2 1.1 -0.5
v -0.1 0.8 -0.5
v -0.1 0.9 -0.5
v 0.1 0.8 -0.5
v 0.1 0.9 -0.5
v 0.2 0.8 -0.5
v 0.2 1.1 -0.5
v -0.2 0 -2.98023e-08
v -0.1 0 -2.98023e-08
v 0.1 0 -2.98023e-08
v 0.2 0 -2.98023e-08
v -0.2 0 -0.1
v -0.1 0 -0.1
v 0.1 0 -0.1
v 0.2 0 -0.1
v -0.3 0.3 0.2
v 0.3 0.3 0.2
v -0.6 0.3 -2.98023e-08
v -0.5 0.3 -2.98023e-08
v -0.2 0.3 -2.98023e-08
v -0.1 0.3 -2.98023e-08
v 0.1 0.3 -2.98023e-08
v 0.2 0.3 -2.98023e-08
v 0.5 0.3 -2.98023e-08
v 0.6 0.3 -2.98023e-08
v -0.6 0.3 -0.1
v -0.5 0.3 -0.1
v -0.2 0.3 -0.1
v -0.1 0.3 -0.1
v 0.1 0.3 -0.1
v 0.2 0.3 -0.1
v 0.5 0.3 -0.1
v 0.6 0.3 -0.1
v -0.3 0.3 -0.3
v 0.3 0.3 -0.3
v -0.5 0.4 -2.98023e-08
v -0.4 0.4 -2.98023e-08
v 0.4 0.4 -2.98023e-08
v 0.5 0.4 -2.98023e-08
v -0.5 0.4 -0.1
v -0.4 0.4 -0.1
v 0.4 0.4 -0.1
v 0.5 0.4 -0.1
v -0.3 0.5 0.1
v -0.2 0.5 0.1
v 0.2 0.5 0.1
v 0.3 0.5 0.1
v -0.4 0.5 -2.98023e-08
v -0.3 0.5 -2.98023e-08
v -0.2 0.5 -2.98023e-08
v 0.2 0.5 -2.98023e-08
v 0.3 0.5 -2.98023e-08
v 0.4 0.5 -2.98023e-08
v -0.4 0.5 -0.1
v -0.2 0.5 -0.1
v 0.2 0.5 -0.1
v 0.4 0.5 -0.1
v -0.2 0.6 0.2
v -0.1 0.6 0.2
v 0.1 0.6 0.2
v 0.2 0.6 0.2
v -0.2 0.6 0.1
v -0.1 0.6 0.1
v 0.1 0.6 0.1
v 0.2 0.6 0.1
v -0.3 0.6 -0.1
v -0.2 0.6 -0.1
v 0.2 0.6 -0.1
v 0.3 0.6 -0.1
v -0.3 0.6 -0.2
v -0.2 0.6 -0.2
v 0.1 0.6 -0.2
v 0.2 0.6 -0.2
v -0.2 0.6 -0.3
v -0.1 0.6 -0.3
v 0.1 0.6 -0.3
v 0.2 0.6 -0.3
v 0.3 0.6 -0.3
v -0.1 0.6 -0.4
v 0.1 0.6 -0.4
v -0.3 0.7 0.2
v -0.2 0.7 0.2
v 0.2 0.7 0.2
v 0.3 0.7 0.2
v -0.3 0.7 0.1
v -0.2 0.7 0.1
v 0.2 0.7 0.1
v 0.3 0.7 0.1
v 0.3 0.7 -0.1
v 0.4 0.7 -0.1
v -0.3 0.7 -0.2
v -0.2 0.7 -0.2
v 0.3 0.7 -0.2
v 0.4 0.7 -0.2
v -0.3 0.7 -0.3
v -0.2 0.7 -0.3
v -0.1 0.7 -0.3
v 0.1 0.7 -0.3
v 0.2 0.7 -0.3
v -0.2 0.7 -0.4
v -0.1 0.7 -0.4
v 0.1 0.7 -0.4
v 0.2 0.7 -0.4
v -0.4 0.8 0.1
v -0.3 0.8 0.1
v -0.2 0.8 0.1
v 0.2 0.8 0.1
v 0.3 0.8 0.1
v 0.4 0.8 0.1
v -0.3 0.8 -2.98023e-08
v -0.2 0.8 -2.98023e-08
v 0.2 0.8 -2.98023e-08
v 0.3 0.8 -2.98023e-08
v 0.3 0.8 -0.1
v 0.4 0.8 -0.1
v -0.4 0.8 -0.2
v -0.3 0.8 -0.2
v -0.2 0.8 -0.4
v -0.1 0.8 -0.4
v 0.1 0.8 -0.4
v 0.2 0.8 -0.4
v -0.2 0.8 -0.5
v -0.1 0.8 -0.5
v 0.1 0.8 -0.5
v 0.2 0.8 -0.5
v -0.4 0.9 0.2
v -0.3 0.9 0.2
v -0.1 0.9 0.2
v 0 0.9 0.2
v 0.3 0.9 0.2
v 0.4 0.9 0.2
v -0.4 0.9 0.1
v -0.3 0.9 0.1
v -0.1 0.9 0.1
v 0 0.9 0.1
v 0.3 0.9 0.1
v 0.4 0.9 0.1
v -0.4 0.9 -0.2
v -0.3 0.9 -0.2
v 0.3 0.9 -0.2
v 0.4 0.9 -0.2
v -0.4 0.9 -0.3
v -0.3 0.9 -0.3
v -0.2 0.9 -0.3
v -0.1 0.9 -0.3
v 0.1 0.9 -0.3
v 0.2 0.9 -0.3
v 0.3 0.9 -0.3
v 0.4 0.9 -0.3
v -0.3 0.9 -0.4
v -0.2 0.9 -0.4
v 0.2 0.9 -0.4
v 0.3 0.9 -0.4
v -0.1 0.9 -0.5
v 0.1 0.9 -0.5
v -0.3 1 0.3
v 0.3 1 0.3
v -0.3 1 0.2
v -0.2 1 0.2
v -0.1 1 0.2
v 0 1 0.2
v 0.2 1 0.2
v 0.3 1 0.2
v -0.2 1 0.1
v -0.1 1 0.1
v 0 1 0.1
v 0.2 1 0.1
v -0.5 1.3 -2.98023e-08
v -0.4 1.3 -2.98023e-08
v 0.4 1.3 -2.98023e-08
v 0.5 1.3 -2.98023e-08
v -0.5 1.3 -0.1
v -0.4 1.3 -0.1
v 0.4 1.3 -0.1
v 0.5 1.3 -0.1
v -0.3 0.4 0.2
v 0.3 0.4 0.2
v -0.2 0.4 0.1
v 0.2 0.4 0.1
v -0.6 0.4 -2.98023e-08
v -0.5 0.4 -2.98023e-08
v 0.5 0.4 -2.98023e-08
v 0.6 0.4 -2.98023e-08
v -0.6 0.4 -0.1
v -0.5 0.4 -0.1
v 0.5 0.4 -0.1
v 0.6 0.4 -0.1
v -0.2 0.4 -0.2
v 0.2 0.4 -0.2
v -0.3 0.4 -0.3
v 0.3 0.4 -0.3
v -0.5 0.5 -2.98023e-08
v -0.4 0.5 -2.98023e-08
v 0.4 0.5 -2.98023e-08
v 0.5 0.5 -2.98023e-08
v -0.5 0.5 -0.1
v -0.4 0.5 -0.1
v 0.4 0.5 -0.1
v 0.5 0.5 -0.1
v -0.4 0.6 -2.98023e-08
v -0.3 0.6 -2.98023e-08
v 0.3 0.6 -2.98023e-08
v 0.4 0.6 -2.98023e-08
v -0.4 0.6 -0.1
v -0.3 0.6 -0.1
v 0.3 0.6 -0.1
v 0.4 0.6 -0.1
v -0.2 0.7 0.2
v -0.1 0.7 0.2
v 0.1 0.7 0.2
v 0.2 0.7 0.2
v -0.3 0.7 0.1
v -0.2 0.7 0.1
v -0.1 0.7 0.1
v 0.1 0.7 0.1
v 0.2 0.7 0.1
v 0.3 0.7 0.1
v -0.3 0.7 -2.98023e-08
v -0.2 0.7 -2.98023e-08
v 0.2 0.7 -2.98023e-08
v 0.3 0.7 -2.98023e-08
v -0.1 0.7 -0.3
v 0.1 0.7 -0.3
v -0.1 0.7 -0.4
v 0.1 0.7 -0.4
v -0.2 1.1 -0.4
v 0.2 1.1 -0.4
v -0.2 1.1 -0.5
v 0.2 1.1 -0.5
v -0.3 1.2 0.3
v 0.3 1.2 0.3
v -0.4 1.2 0.2
v -0.3 1.2 0.2
v 0.3 1.2 0.2
v 0.4 1.2 0.2
v -0.4 1.2 0.1
v -0.3 1.2 0.1
v 0.3 1.2 0.1
v 0.4 1.2 0.1
v -0.4 1.2 -0.2
v -0.3 1.2 -0.2
v 0.3 1.2 -0.2
v 0.4 1.2 -0.2
v -0.4 1.2 -0.3
v -0.3 1.2 -0.3
v 0.3 1.2 -0.3
v 0.4 1.2 -0.3
v -0.3 1.2 -0.4
v 0.3 1.2 -0.4
v -0.3 1.3 0.2
v 0.3 1.3 0.2
v -0.4 1.3 0.1
v -0.3 1.3 0.1
v -0.2 1.3 0.1
v 0.2 1.3 0.1
v 0.3 1.3 0.1
v 0.4 1.3 0.1
v -0.4 1.3 -2.98023e-08
v -0.3 1.3 -2.98023e-08
v 0.3 1.3 -2.98023e-08
v 0.4 1.3 -2.98023e-08
v -0.4 1.3 -0.1
v -0.3 1.3 -0.1
v 0.3 1.3 -0.1
v 0.4 1.3 -0.1
v -0.4 1.3 -0.2
v -0.3 1.3 -0.2
v -0.2 1.3 -0.2
v 0.2 1.3 -0.2
v 0.3 1.3 -0.2
v 0.4 1.3 -0.2
v -0.3 1.3 -0.3
v 0.3 1.3 -0.3
v -0.2 1.4 0.1
v 0.2 1.4 0.1
v -0.4 1.4 -2.98023e-08
v -0.3 1.4 -2.98023e-08
v 0.3 1.4 -2.98023e-08
v 0.4 1.4 -2.98023e-08
v -0.4 1.4 -0.1
v -0.3 1.4 -0.1
v 0.3 1.4 -0.1
v 0.4 1.4 -0.1
v -0.2 1.4 -0.2
v 0.2 1.4 -0.2
v -0.5 1.5 -2.98023e-08
v -0.4 1.5 -2.98023e-08
v 0.4 1.5 -2.98023e-08
v 0.5 1.5 -2.98023e-08
v -0.5 1.5 -0.1
v -0.4 1.5 -0.1
v 0.4 1.5 -0.1
v 0.5 1.5 -0.1

# faces
f 3/2/1 2/2/1 1/2/1
f 4/2/1 2/2/1 3/2/1
f 7/8/1 6/8/1 5/8/1
f 8/8/1 6/8/1 7/8/1
f 11/1/1 10/1/1 9/1/1
f 12/1/1 10/1/1 11/1/1
f 15/2/1 14/2/1 13/2/1
f 16/2/1 14/2/1 15/2/1
f 20/1/1 18/1/1 17/1/1
f 21/1/1 18/1/1 20/1/1
f 23/1/1 20/1/1 19/1/1
f 23/1/1 22/1/1 21/1/1
f 23/1/1 21/1/1 20/1/1
f 24/1/1 22/1/1 23/1/1
f 25/1/1 22/1/1 24/1/1
f 26/1/1 22/1/1 25/1/1
f 27/1/1 25/1/1 24/1/1
f 28/1/1 25/1/1 27/1/1
f 29/1/1 25/1/1 28/1/1
f 30/1/1 25/1/1 29/1/1
f 33/8/1 32/8/1 31/8/1
f 34/8/1 32/8/1 33/8/1
f 37/5/1 36/5/1 35/5/1
f 41/5/1 37/5/1 35/5/1
f 42/8/1 38/8/1 37/8/1
f 42/5/1 37/5/1 41/5/1
f 43/5/1 39/5/1 38/5/1
f 43/8/1 38/8/1 42/8/1
f 44/5/1 39/5/1 43/5/1
f 46/5/1 41/5/1 40/5/1
f 47/5/1 45/5/1 44/5/1
f 47/5/1 44/5/1 43/5/1
f 47/5/1 43/5/1 42/5/1
f 48/5/1 45/5/1 47/5/1
f 49/5/1 45/5/1 48/5/1
f 50/5/1 46/5/1 40/5/1
f 51/5/1 46/5/1 50/5/1
f 52/1/1 49/1/1 48/1/1
f 53/1/1 49/1/1 52/1/1
f 57/1/1 56/1/1 55/1/1
f 58/1/1 56/1/1 57/1/1
f 61/1/1 54/1/1 53/1/1
f 62/1/1 54/1/1 61/1/1
f 63/1/1 59/1/1 58/1/1
f 64/1/1 59/1/1 63/1/1
f 65/1/1 61/1/1 60/1/1
f 66/1/1 61/1/1 65/1/1
f 69/7/1 68/7/1 67/7/1
f 70/7/1 68/7/1 69/7/1
f 71/2/1 70/2/1 69/2/1
f 72/2/1 70/2/1 71/2/1
f 75/8/1 74/8/1 73/8/1
f 76/8/1 74/8/1 75/8/1
f 77/8/1 74/8/1 76/8/1
f 80/8/1 74/8/1 77/8/1
f 81/8/1 74/8/1 80/8/1
f 83/5/1 79/5/1 78/5/1
f 84/5/1 79/5/1 83/5/1
f 86/5/1 82/5/1 81/5/1
f 87/5/1 82/5/1 86/5/1
f 89/2/1 85/2/1 84/2/1
f 90/2/1 85/2/1 89/2/1
f 91/5/1 88/5/1 87/5/1
f 92/5/1 88/5/1 91/5/1
f 94/1/1 93/1/1 92/1/1
f 94/1/1 92/1/1 91/1/1
f 95/1/1 93/1/1 94/1/1
f 96/1/1 93/1/1 95/1/1
f 97/1/1 93/1/1 96/1/1
f 100/1/1 99/1/1 98/1/1
f 101/1/1 99/1/1 100/1/1
f 104/5/1 103/5/1 102/5/1
f 105/5/1 103/5/1 104/5/1
f 108/5/1 107/5/1 106/5/1
f 109/5/1 107/5/1 108/5/1
f 112/7/1 111/7/1 110/7/1
f 113/7/1 111/7/1 112/7/1
f 114/2/1 113/2/1 112/2/1
f 115/2/1 113/2/1 114/2/1
f 118/5/1 117/5/1 116/5/1
f 119/5/1 117/5/1 118/5/1
f 122/5/1 121/5/1 120/5/1
f 123/5/1 121/5/1 122/5/1
f 125/1/1 123/1/1 122/1/1
f 125/1/1 124/1/1 123/1/1
f 126/1/1 124/1/1 125/1/1
f 129/5/1 128/5/1 127/5/1
f 130/5/1 129/5/1 127/5/1
f 131/5/1 130/5/1 127/5/1
f 132/5/1 130/5/1 131/5/1
f 135/1/1 134/1/1 133/1/1
f 136/1/1 134/1/1 135/1/1
f 139/8/1 138/8/1 137/8/1
f 140/8/1 138/8/1 139/8/1
f 143/1/1 142/1/1 141/1/1
f 144/1/1 142/1/1 143/1/1
f 147/2/1 146/2/1 145/2/1
f 148/2/1 146/2/1 147/2/1
f 149/2/2 150/2/2 151/2/2
f 151/2/2 150/2/2 152/2/2
f 153/8/2 154/8/2 155/8/2
f 155/8/2 154/8/2 156/8/2
f 157/1/2 158/1/2 159/1/2
f 159/1/2 158/1/2 160/1/2
f 161/1/2 162/1/2 163/1/2
f 163/1/2 162/1/2 164/1/2
f 165/5/2 166/5/2 167/5/2
f 165/5/2 167/5/2 168/5/2
f 165/5/2 168/5/2 169/5/2
f 169/5/2 168/5/2 170/5/2
f 171/7/2 172/7/2 173/7/2
f 173/7/2 172/7/2 174/7/2
f 173/2/2 174/2/2 175/2/2
f 175/2/2 174/2/2 176/2/2
f 177/5/2 178/5/2 179/5/2
f 179/5/2 178/5/2 180/5/2
f 181/5/2 182/5/2 183/5/2
f 183/5/2 182/5/2 184/5/2
f 183/1/2 184/1/2 186/1/2
f 184/1/2 185/1/2 186/1/2
f 186/1/2 185/1/2 187/1/2
f 188/5/2 189/5/2 190/5/2
f 190/5/2 189/5/2 191/5/2
f 192/5/2 193/5/2 194/5/2
f 194/5/2 193/5/2 195/5/2
f 196/7/2 197/7/2 198/7/2
f 198/7/2 197/7/2 199/7/2
f 198/2/2 199/2/2 200/2/2
f 200/2/2 199/2/2 201/2/2
f 202/8/2 203/8/2 204/8/2
f 204/8/2 203/8/2 205/8/2
f 205/8/2 203/8/2 206/8/2
f 206/8/2 203/8/2 209/8/2
f 209/8/2 203/8/2 210/8/2
f 207/5/2 208/5/2 211/5/2
f 211/5/2 208/5/2 212/5/2
f 212/2/2 213/2/2 216/2/2
f 216/2/2 213/2/2 217/2/2
f 214/5/2 215/5/2 218/5/2
f 218/5/2 215/5/2 219/5/2
f 219/1/2 220/1/2 221/1/2
f 218/1/2 219/1/2 221/1/2
f 221/1/2 220/1/2 222/1/2
f 222/1/2 220/1/2 223/1/2
f 223/1/2 220/1/2 224/1/2
f 225/1/2 226/1/2 227/1/2
f 227/1/2 226/1/2 228/1/2
f 229/8/2 230/8/2 231/8/2
f 231/8/2 230/8/2 232/8/2
f 233/5/2 234/5/2 235/5/2
f 233/5/2 235/5/2 239/5/2
f 235/8/2 236/8/2 240/8/2
f 239/5/2 235/5/2 240/5/2
f 236/5/2 237/5/2 241/5/2
f 240/8/2 236/8/2 241/8/2
f 241/5/2 237/5/2 242/5/2
f 238/5/2 239/5/2 243/5/2
f 240/4/2 241/4/2 244/4/2
f 244/4/2 241/4/2 245/4/2
f 242/5/2 237/5/2 246/5/2
f 246/5/2 237/5/2 247/5/2
f 238/5/2 243/5/2 248/5/2
f 248/5/2 243/5/2 249/5/2
f 246/1/2 247/1/2 250/1/2
f 250/1/2 247/1/2 251/1/2
f 253/1/2 254/1/2 255/1/2
f 255/1/2 254/1/2 256/1/2
f 251/1/2 252/1/2 259/1/2
f 259/1/2 252/1/2 260/1/2
f 256/1/2 257/1/2 261/1/2
f 261/1/2 257/1/2 262/1/2
f 258/1/2 259/1/2 263/1/2
f 263/1/2 259/1/2 264/1/2
f 265/2/2 266/2/2 267/2/2
f 267/2/2 266/2/2 268/2/2
f 269/5/2 270/5/2 272/5/2
f 272/5/2 270/5/2 273/5/2
f 271/1/2 272/1/2 275/1/2
f 272/1/2 273/1/2 275/1/2
f 275/1/2 273/1/2 276/1/2
f 275/1/2 276/1/2 278/1/2
f 276/1/2 277/1/2 278/1/2
f 274/1/2 275/1/2 278/1/2
f 278/1/2 277/1/2 279/1/2
f 279/1/2 277/1/2 280/1/2
f 280/1/2 277/1/2 281/1/2
f 279/1/2 280/1/2 282/1/2
f 282/1/2 280/1/2 283/1/2
f 283/1/2 280/1/2 284/1/2
f 284/1/2 280/1/2 285/1/2
f 286/8/2 287/8/2 288/8/2
f 288/8/2 287/8/2 289/8/2
f 290/1/2 291/1/2 292/1/2
f 292/1/2 291/1/2 293/1/2
f 294/2/2 295/2/2 296/2/2
f 296/2/2 295/2/2 297/2/2
f 300/1/3 299/1/3 298/1/3
f 301/1/3 299/1/3 300/1/3
f 307/1/3 303/1/3 302/1/3
f 308/1/3 303/1/3 307/1/3
f 309/1/3 303/1/3 308/1/3
f 312/5/3 307/5/3 306/5/3
f 312/5/3 308/5/3 307/5/3
f 313/5/3 308/5/3 312/5/3
f 314/5/3 312/5/3 311/5/3
f 315/5/3 312/5/3 314/5/3
f 318/5/3 317/5/3 316/5/3
f 319/5/3 317/5/3 318/5/3
f 322/5/3 321/5/3 320/5/3
f 323/5/3 321/5/3 322/5/3
f 325/8/3 305/8/3 304/8/3
f 326/8/3 305/8/3 325/8/3
f 327/5/3 324/5/3 323/5/3
f 328/5/3 324/5/3 327/5/3
f 329/5/3 324/5/3 328/5/3
f 330/1/3 310/1/3 309/1/3
f 331/1/3 310/1/3 330/1/3
f 332/1/3 329/1/3 328/1/3
f 332/1/3 330/1/3 329/1/3
f 333/1/3 330/1/3 332/1/3
f 340/1/3 335/1/3 334/1/3
f 341/1/3 335/1/3 340/1/3
f 342/1/3 337/1/3 336/1/3
f 343/1/3 337/1/3 342/1/3
f 345/5/3 339/5/3 338/5/3
f 346/5/3 339/5/3 345/5/3
f 347/5/3 339/5/3 346/5/3
f 353/8/3 345/8/3 344/8/3
f 353/8/3 346/8/3 345/8/3
f 354/2/3 348/2/3 347/2/3
f 355/9/3 349/9/3 348/9/3
f 355/2/3 348/2/3 354/2/3
f 356/5/3 350/5/3 349/5/3
f 356/9/3 349/9/3 355/9/3
f 357/5/3 350/5/3 356/5/3
f 358/2/3 355/2/3 354/2/3
f 358/2/3 356/2/3 355/2/3
f 360/8/3 354/8/3 353/8/3
f 360/8/3 353/8/3 344/8/3
f 361/2/3 358/2/3 354/2/3
f 361/8/3 354/8/3 360/8/3
f 362/2/3 358/2/3 361/2/3
f 363/5/3 359/5/3 358/5/3
f 363/2/3 358/2/3 362/2/3
f 364/8/3 360/8/3 344/8/3
f 365/8/3 360/8/3 364/8/3
f 366/8/3 360/8/3 365/8/3
f 367/2/3 362/2/3 361/2/3
f 368/9/3 363/9/3 362/9/3
f 368/2/3 362/2/3 367/2/3
f 369/5/3 359/5/3 363/5/3
f 369/9/3 363/9/3 368/9/3
f 370/5/3 359/5/3 369/5/3
f 371/1/3 352/1/3 351/1/3
f 372/1/3 352/1/3 371/1/3
f 373/5/3 366/5/3 365/5/3
f 373/5/3 367/5/3 366/5/3
f 374/5/3 367/5/3 373/5/3
f 379/1/3 376/1/3 375/1/3
f 380/1/3 376/1/3 379/1/3
f 381/1/3 378/1/3 377/1/3
f 382/1/3 378/1/3 381/1/3
f 385/2/3 384/2/3 383/2/3
f 386/2/3 384/2/3 385/2/3
f 390/8/3 387/8/3 386/8/3
f 391/8/3 387/8/3 390/8/3
f 393/1/3 389/1/3 388/1/3
f 394/1/3 389/1/3 393/1/3
f 395/1/3 389/1/3 394/1/3
f 396/2/3 392/2/3 391/2/3
f 397/2/3 392/2/3 396/2/3
f 400/1/3 394/1/3 393/1/3
f 401/1/3 394/1/3 400/1/3
f 405/5/3 399/5/3 398/5/3
f 406/5/3 399/5/3 405/5/3
f 407/7/3 403/7/3 402/7/3
f 408/2/3 404/2/3 403/2/3
f 408/7/3 403/7/3 407/7/3
f 409/2/3 404/2/3 408/2/3
f 413/7/3 411/7/3 410/7/3
f 414/2/3 412/2/3 411/2/3
f 414/7/3 411/7/3 413/7/3
f 415/2/3 412/2/3 414/2/3
f 420/4/3 417/4/3 416/4/3
f 421/4/3 417/4/3 420/4/3
f 425/2/3 419/2/3 418/2/3
f 426/2/3 419/2/3 425/2/3
f 427/1/3 423/1/3 422/1/3
f 428/1/3 423/1/3 427/1/3
f 431/8/3 425/8/3 424/8/3
f 432/8/3 425/8/3 431/8/3
f 433/1/3 428/1/3 427/1/3
f 433/1/3 429/1/3 428/1/3
f 434/1/3 429/1/3 433/1/3
f 435/2/3 431/2/3 430/2/3
f 436/2/3 431/2/3 435/2/3
f 439/5/3 438/5/3 437/5/3
f 440/5/3 438/5/3 439/5/3
f 441/5/4 442/5/4 443/5/4
f 443/5/4 442/5/4 444/5/4
f 445/5/4 446/5/4 447/5/4
f 447/5/4 446/5/4 448/5/4
f 449/2/4 450/2/4 451/2/4
f 451/2/4 450/2/4 452/2/4
f 452/8/4 453/8/4 456/8/4
f 456/8/4 453/8/4 457/8/4
f 454/1/4 455/1/4 459/1/4
f 459/1/4 455/1/4 460/1/4
f 460/1/4 455/1/4 461/1/4
f 457/2/4 458/2/4 462/2/4
f 459/1/4 460/1/4 463/1/4
f 463/1/4 460/1/4 464/1/4
f 457/2/4 462/2/4 468/2/4
f 468/2/4 462/2/4 469/2/4
f 465/7/4 466/7/4 470/7/4
f 466/2/4 467/2/4 471/2/4
f 470/7/4 466/7/4 471/7/4
f 471/2/4 467/2/4 472/2/4
f 473/7/4 474/7/4 476/7/4
f 474/2/4 475/2/4 477/2/4
f 476/7/4 474/7/4 477/7/4
f 477/2/4 475/2/4 478/2/4
f 479/2/4 480/2/4 481/2/4
f 479/2/4 481/2/4 485/2/4
f 485/2/4 481/2/4 486/2/4
f 482/1/4 483/1/4 487/1/4
f 487/1/4 483/1/4 488/1/4
f 484/8/4 485/8/4 491/8/4
f 491/8/4 485/8/4 492/8/4
f 487/1/4 488/1/4 493/1/4
f 488/1/4 489/1/4 493/1/4
f 493/1/4 489/1/4 494/1/4
f 490/2/4 491/2/4 495/2/4
f 495/2/4 491/2/4 496/2/4
f 497/1/4 498/1/4 503/1/4
f 503/1/4 498/1/4 504/1/4
f 499/1/4 500/1/4 505/1/4
f 505/1/4 500/1/4 506/1/4
f 501/5/4 502/5/4 508/5/4
f 508/5/4 502/5/4 509/5/4
f 507/8/4 508/8/4 512/8/4
f 507/8/4 512/8/4 513/8/4
f 513/8/4 512/8/4 514/8/4
f 510/1/4 511/1/4 515/1/4
f 515/1/4 511/1/4 516/1/4
f 517/5/4 518/5/4 522/5/4
f 518/1/4 519/1/4 523/1/4
f 522/5/4 518/5/4 523/5/4
f 523/1/4 519/1/4 524/1/4
f 520/1/4 521/1/4 525/1/4
f 525/1/4 521/1/4 526/1/4
f 527/1/4 528/1/4 533/1/4
f 533/1/4 528/1/4 534/1/4
f 531/5/4 532/5/4 537/5/4
f 532/1/4 533/1/4 538/1/4
f 537/5/4 532/5/4 538/5/4
f 538/1/4 533/1/4 539/1/4
f 536/5/4 537/5/4 540/5/4
f 540/5/4 537/5/4 541/5/4
f 541/5/4 542/5/4 545/5/4
f 542/1/4 543/1/4 546/1/4
f 545/5/4 542/5/4 546/5/4
f 546/1/4 543/1/4 547/1/4
f 544/4/4 545/4/4 548/4/4
f 548/4/4 545/4/4 549/4/4
f 529/8/4 530/8/4 552/8/4
f 552/8/4 530/8/4 553/8/4
f 548/5/4 549/5/4 554/5/4
f 549/5/4 550/5/4 554/5/4
f 550/1/4 551/1/4 555/1/4
f 554/5/4 550/5/4 555/5/4
f 555/1/4 551/1/4 556/1/4
f 534/1/4 535/1/4 557/1/4
f 557/1/4 535/1/4 558/1/4
f 556/1/4 557/1/4 559/1/4
f 559/1/4 557/1/4 560/1/4
f 561/1/4 562/1/4 565/1/4
f 565/1/4 562/1/4 566/1/4
f 563/5/4 564/5/4 568/5/4
f 568/5/4 564/5/4 569/5/4
f 567/5/4 568/5/4 570/5/4
f 570/5/4 568/5/4 571/5/4
f 571/5/4 572/5/4 573/5/4
f 573/5/4 572/5/4 574/5/4
f 566/1/4 562/1/4 576/1/4
f 575/1/4 576/1/4 577/1/4
f 576/1/4 562/1/4 578/1/4
f 577/1/4 576/1/4 578/1/4
f 579/1/4 580/1/4 581/1/4
f 581/1/4 580/1/4 582/1/4
f 582/1/4 580/1/4 584/1/4
f 583/1/4 584/1/4 585/1/4
f 584/1/4 580/1/4 586/1/4
f 585/1/4 584/1/4 586/1/4
f 591/7/5 588/7/5 587/7/5
f 592/7/5 588/7/5 591/7/5
f 593/7/5 590/7/5 589/7/5
f 594/7/5 590/7/5 593/7/5
f 599/8/5 596/8/5 595/8/5
f 600/8/5 596/8/5 599/8/5
f 601/8/5 596/8/5 600/8/5
f 602/8/5 596/8/5 601/8/5
f 605/2/5 598/2/5 597/2/5
f 606/2/5 598/2/5 605/2/5
f 607/8/5 599/8/5 595/8/5
f 608/8/5 601/8/5 600/8/5
f 609/8/5 601/8/5 608/8/5
f 610/8/5 596/8/5 602/8/5
f 611/2/5 604/2/5 603/2/5
f 612/2/5 604/2/5 611/2/5
f 613/8/5 610/8/5 609/8/5
f 613/8/5 609/8/5 608/8/5
f 613/8/5 607/8/5 595/8/5
f 613/8/5 608/8/5 607/8/5
f 614/8/5 596/8/5 610/8/5
f 614/8/5 610/8/5 613/8/5
f 619/8/5 616/8/5 615/8/5
f 620/8/5 616/8/5 619/8/5
f 621/8/5 618/8/5 617/8/5
f 622/8/5 618/8/5 621/8/5
f 628/5/5 624/5/5 623/5/5
f 629/5/5 624/5/5 628/5/5
f 630/5/5 626/5/5 625/5/5
f 631/5/5 626/5/5 630/5/5
f 633/2/5 629/2/5 628/2/5
f 633/2/5 628/2/5 627/2/5
f 634/2/5 629/2/5 633/2/5
f 635/2/5 632/2/5 631/2/5
f 635/2/5 631/2/5 630/2/5
f 636/2/5 632/2/5 635/2/5
f 641/5/5 638/5/5 637/5/5
f 642/5/5 638/5/5 641/5/5
f 643/5/5 640/5/5 639/5/5
f 644/5/5 640/5/5 643/5/5
f 649/5/5 646/5/5 645/5/5
f 650/5/5 646/5/5 649/5/5
f 652/5/5 648/5/5 647/5/5
f 653/5/5 651/5/5 650/5/5
f 654/5/5 651/5/5 653/5/5
f 655/4/5 652/4/5 651/4/5
f 655/5/5 651/5/5 654/5/5
f 656/5/5 648/5/5 652/5/5
f 656/4/5 652/4/5 655/4/5
f 657/5/5 648/5/5 656/5/5
f 658/5/5 655/5/5 654/5/5
f 659/5/5 655/5/5 658/5/5
f 664/5/5 661/5/5 660/5/5
f 665/5/5 661/5/5 664/5/5
f 666/5/5 663/5/5 662/5/5
f 667/5/5 663/5/5 666/5/5
f 672/5/5 669/5/5 668/5/5
f 673/5/5 669/5/5 672/5/5
f 674/5/5 671/5/5 670/5/5
f 675/5/5 671/5/5 674/5/5
f 679/5/5 676/5/5 675/5/5
f 680/5/5 676/5/5 679/5/5
f 681/5/5 678/5/5 677/5/5
f 682/5/5 678/5/5 681/5/5
f 689/1/5 684/1/5 683/1/5
f 689/3/5 685/3/5 684/3/5
f 690/3/5 685/3/5 689/3/5
f 691/5/5 687/5/5 686/5/5
f 692/1/5 688/1/5 687/1/5
f 692/5/5 687/5/5 691/5/5
f 693/1/5 688/1/5 692/1/5
f 694/1/5 688/1/5 693/1/5
f 695/1/5 689/1/5 683/1/5
f 696/1/5 689/1/5 695/1/5
f 701/1/5 698/1/5 697/1/5
f 702/1/5 698/1/5 701/1/5
f 703/1/5 700/1/5 699/1/5
f 704/1/5 700/1/5 703/1/5
f 711/1/5 706/1/5 705/1/5
f 712/1/5 706/1/5 711/1/5
f 713/5/5 708/5/5 707/5/5
f 714/5/5 708/5/5 713/5/5
f 715/1/5 710/1/5 709/1/5
f 716/1/5 710/1/5 715/1/5
f 721/1/5 718/1/5 717/1/5
f 722/1/5 718/1/5 721/1/5
f 727/1/5 720/1/5 719/1/5
f 728/1/5 720/1/5 727/1/5
f 729/1/5 723/1/5 722/1/5
f 730/1/5 723/1/5 729/1/5
f 731/1/5 727/1/5 726/1/5
f 732/1/5 727/1/5 731/1/5
f 733/1/5 725/1/5 724/1/5
f 734/1/5 725/1/5 733/1/5
f 737/1/5 736/1/5 735/1/5
f 738/1/5 736/1/5 737/1/5
f 739/1/5 736/1/5 738/1/5
f 740/1/5 736/1/5 739/1/5
f 741/1/5 736/1/5 740/1/5
f 742/1/5 736/1/5 741/1/5
f 743/1/5 739/1/5 738/1/5
f 744/1/5 739/1/5 743/1/5
f 745/1/5 741/1/5 740/1/5
f 746/1/5 741/1/5 745/1/5
f 751/1/5 748/1/5 747/1/5
f 752/1/5 748/1/5 751/1/5
f 753/1/5 750/1/5 749/1/5
f 754/1/5 750/1/5 753/1/5
f 755/8/6 756/8/6 757/8/6
f 757/8/6 756/8/6 758/8/6
f 759/2/6 760/2/6 763/2/6
f 763/2/6 760/2/6 764/2/6
f 761/2/6 762/2/6 765/2/6
f 765/2/6 762/2/6 766/2/6
f 755/8/6 757/8/6 767/8/6
f 758/8/6 756/8/6 768/8/6
f 755/8/6 767/8/6 769/8/6
f 767/8/6 768/8/6 769/8/6
f 768/8/6 756/8/6 770/8/6
f 769/8/6 768/8/6 770/8/6
f 771/8/6 772/8/6 775/8/6
f 775/8/6 772/8/6 776/8/6
f 773/8/6 774/8/6 777/8/6
f 777/8/6 774/8/6 778/8/6
f 779/2/6 780/2/6 783/2/6
f 783/2/6 780/2/6 784/2/6
f 781/2/6 782/2/6 785/2/6
f 785/2/6 782/2/6 786/2/6
f 787/5/6 788/5/6 792/5/6
f 792/5/6 788/5/6 793/5/6
f 789/5/6 790/5/6 794/5/6
f 794/5/6 790/5/6 795/5/6
f 791/5/6 792/5/6 797/5/6
f 797/5/6 792/5/6 798/5/6
f 795/5/6 796/5/6 799/5/6
f 799/5/6 796/5/6 800/5/6
f 801/5/6 802/5/6 803/5/6
f 803/5/6 802/5/6 804/5/6
f 805/1/6 806/1/6 807/1/6
f 807/1/6 806/1/6 808/1/6
f 809/1/6 810/1/6 812/1/6
f 812/1/6 810/1/6 813/1/6
f 811/1/6 812/1/6 815/1/6
f 815/1/6 812/1/6 816/1/6
f 813/1/6 814/1/6 817/1/6
f 817/1/6 814/1/6 818/1/6
f 819/1/6 820/1/6 823/1/6
f 823/1/6 820/1/6 824/1/6
f 821/1/6 822/1/6 825/1/6
f 825/1/6 822/1/6 826/1/6
f 824/1/6 825/1/6 827/1/6
f 827/1/6 825/1/6 828/1/6
f 829/1/6 830/1/6 832/1/6
f 832/1/6 830/1/6 833/1/6
f 833/1/6 830/1/6 834/1/6
f 834/1/6 830/1/6 835/1/6
f 831/1/6 832/1/6 837/1/6
f 832/1/6 833/1/6 837/1/6
f 837/1/6 833/1/6 838/1/6
f 835/1/6 836/1/6 839/1/6
f 834/1/6 835/1/6 839/1/6
f 839/1/6 836/1/6 840/1/6
f 838/1/6 833/1/6 842/1/6
f 834/1/6 839/1/6 843/1/6
f 841/1/6 842/1/6 845/1/6
f 842/1/6 833/1/6 846/1/6
f 845/1/6 842/1/6 846/1/6
f 846/1/6 833/1/6 847/1/6
f 843/1/6 844/1/6 848/1/6
f 834/1/6 843/1/6 848/1/6
f 848/1/6 844/1/6 849/1/6
f 849/1/6 844/1/6 850/1/6
f 846/1/6 847/1/6 851/1/6
f 848/1/6 849/1/6 851/1/6
f 847/1/6 848/1/6 851/1/6
f 851/1/6 849/1/6 852/1/6
f 855/1/6 856/1/6 859/1/6
f 859/1/6 856/1/6 860/1/6
f 857/1/6 858/1/6 861/1/6
f 861/1/6 858/1/6 862/1/6
f 853/1/6 854/1/6 863/1/6
f 863/1/6 854/1/6 864/1/6
f 865/1/6 866/1/6 869/1/6
f 869/1/6 866/1/6 870/1/6
f 867/1/6 868/1/6 871/1/6
f 871/1/6 868/1/6 872/1/6
